
<svg width="490" height="375" viewBox="0 0 490 375" fill="none" xmlns="http://www.w3.org/2000/svg" role="img" aria-labelledby="descId">
    <style>
        .header {
            font: 600 18px 'Segoe UI', Ubuntu, Sans-Serif;
            fill: #41b883;
            animation: fadeInAnimation 0.8s ease-in-out forwards;
        }
        .stat-label {
            font: 600 12px 'Segoe UI', Ubuntu, Sans-Serif;
            fill: #fffefe;
        }
        .stat-value {
            font: 700 12px 'Segoe UI', Ubuntu, Sans-Serif;
            fill: #41b883;
        }
        .lang-name {
            font: 400 11px "Segoe UI", Ubuntu, Sans-Serif;
            fill: #fffefe;
        }
        .stagger {
            opacity: 0;
            animation: fadeInAnimation 0.3s ease-in-out forwards;
        }
        @keyframes fadeInAnimation {
            from { opacity: 0; }
            to { opacity: 1; }
        }
    </style>
    
    <rect x="0.5" y="0.5" rx="4.5" height="99%" stroke="#e4e2e2" width="489" fill="#273849" stroke-opacity="0"/>
    
    <g transform="translate(245, 35)">
        <text x="0" y="0" class="header" text-anchor="middle">GitHub Advanced Stats</text>
    </g>

    <g transform="translate(20, 55)">
        <mask id="rect-mask">
             <rect x="0" y="0" width="450" height="8" fill="white" rx="5"/>
        </mask>
        
            <rect mask="url(#rect-mask)" x="0" y="0" width="114.14673505629936" height="8" fill="#00ADD8"/>
        
            <rect mask="url(#rect-mask)" x="114.14673505629936" y="0" width="107.89146801818214" height="8" fill="#4F5D95"/>
        
            <rect mask="url(#rect-mask)" x="222.0382030744815" y="0" width="52.795607447577595" height="8" fill="#a56de2"/>
        
            <rect mask="url(#rect-mask)" x="274.8338105220591" y="0" width="38.22207301464375" height="8" fill="#f1e05a"/>
        
            <rect mask="url(#rect-mask)" x="313.0558835367028" y="0" width="32.77864992150706" height="8" fill="#663399"/>
        
            <rect mask="url(#rect-mask)" x="345.8345334582099" y="0" width="16.590182946718272" height="8" fill="#89e051"/>
        
            <rect mask="url(#rect-mask)" x="362.4247164049282" y="0" width="10.890623003103476" height="8" fill="#e34c26"/>
        
            <rect mask="url(#rect-mask)" x="373.31533940803166" y="0" width="9.599638341176268" height="8" fill="#00ADD8"/>
        
            <rect mask="url(#rect-mask)" x="382.91497774920794" y="0" width="6.38985905606284" height="8" fill="#3178c6"/>
        
            <rect mask="url(#rect-mask)" x="389.3048368052708" y="0" width="2.2403390742220806" height="8" fill="#f2a542"/>
        
            <rect mask="url(#rect-mask)" x="391.5451758794929" y="0" width="0.1914159438894728" height="8" fill="#7e7eff"/>
        
            <rect mask="url(#rect-mask)" x="391.73659182338235" y="0" width="58.26340817661769" height="8" fill="#d4d4d4"/>
        

        <g transform="translate(5, 25)">
            
            <g transform="translate(0, 0)">
                <g transform="translate(0, 0)">
                    
                        <g transform="translate(0, 0)" class="stagger" style="animation-delay: 450ms">
                            <circle cx="5" cy="6" r="5" fill="#00ADD8" />
                            <text x="15" y="10" class='lang-name'>Go 25.37%</text>
                        </g>
                    
                        <g transform="translate(0, 25)" class="stagger" style="animation-delay: 550ms">
                            <circle cx="5" cy="6" r="5" fill="#4F5D95" />
                            <text x="15" y="10" class='lang-name'>PHP 23.98%</text>
                        </g>
                    
                        <g transform="translate(0, 50)" class="stagger" style="animation-delay: 650ms">
                            <circle cx="5" cy="6" r="5" fill="#a56de2" />
                            <text x="15" y="10" class='lang-name'>Vala 11.73%</text>
                        </g>
                    
                        <g transform="translate(0, 75)" class="stagger" style="animation-delay: 750ms">
                            <circle cx="5" cy="6" r="5" fill="#f1e05a" />
                            <text x="15" y="10" class='lang-name'>JavaScript 8.49%</text>
                        </g>
                    
                        <g transform="translate(0, 100)" class="stagger" style="animation-delay: 850ms">
                            <circle cx="5" cy="6" r="5" fill="#663399" />
                            <text x="15" y="10" class='lang-name'>CSS 7.28%</text>
                        </g>
                    
                        <g transform="translate(0, 125)" class="stagger" style="animation-delay: 950ms">
                            <circle cx="5" cy="6" r="5" fill="#89e051" />
                            <text x="15" y="10" class='lang-name'>Shell 3.69%</text>
                        </g>
                    
                </g>
                
                
                    <g transform="translate(130, 0)">
                
                    
                        <g transform="translate(0, 0)" class="stagger" style="animation-delay: 450ms">
                            <circle cx="5" cy="6" r="5" fill="#e34c26" />
                            <text x="15" y="10" class='lang-name'>HTML 2.42%</text>
                        </g>
                    
                        <g transform="translate(0, 25)" class="stagger" style="animation-delay: 550ms">
                            <circle cx="5" cy="6" r="5" fill="#00ADD8" />
                            <text x="15" y="10" class='lang-name'>Go Template 2.13%</text>
                        </g>
                    
                        <g transform="translate(0, 50)" class="stagger" style="animation-delay: 650ms">
                            <circle cx="5" cy="6" r="5" fill="#3178c6" />
                            <text x="15" y="10" class='lang-name'>TypeScript 1.42%</text>
                        </g>
                    
                        <g transform="translate(0, 75)" class="stagger" style="animation-delay: 750ms">
                            <circle cx="5" cy="6" r="5" fill="#f2a542" />
                            <text x="15" y="10" class='lang-name'>Latte 0.50%</text>
                        </g>
                    
                        <g transform="translate(0, 100)" class="stagger" style="animation-delay: 850ms">
                            <circle cx="5" cy="6" r="5" fill="#7e7eff" />
                            <text x="15" y="10" class='lang-name'>Nix 0.04%</text>
                        </g>
                    
                        <g transform="translate(0, 125)" class="stagger" style="animation-delay: 950ms">
                            <circle cx="5" cy="6" r="5" fill="#d4d4d4" />
                            <text x="15" y="10" class='lang-name'>Others 12.95%</text>
                        </g>
                    
                </g>
            </g>
            
            <g transform="translate(295, 2)">
                
                    
                        <g transform="translate(0, 2)" class="stagger" style="animation-delay: 0ms">
                            <text x="0" y="10" class="stat-label">Total Commits:</text>
                            <text x="115" y="10" class="stat-value">1.4K</text>
                        </g>
                    
                        <g transform="translate(0, 24)" class="stagger" style="animation-delay: 100ms">
                            <text x="0" y="10" class="stat-label">Merged PRs:</text>
                            <text x="115" y="10" class="stat-value">149</text>
                        </g>
                    
                        <g transform="translate(0, 46)" class="stagger" style="animation-delay: 200ms">
                            <text x="0" y="10" class="stat-label">Total Issues:</text>
                            <text x="115" y="10" class="stat-value">114</text>
                        </g>
                    
                        <g transform="translate(0, 68)" class="stagger" style="animation-delay: 300ms">
                            <text x="0" y="10" class="stat-label">Total Stars:</text>
                            <text x="115" y="10" class="stat-value">5</text>
                        </g>
                    
                        <g transform="translate(0, 90)" class="stagger" style="animation-delay: 400ms">
                            <text x="0" y="10" class="stat-label">Total Repositories:</text>
                            <text x="115" y="10" class="stat-value">12</text>
                        </g>
                    
                        <g transform="translate(0, 112)" class="stagger" style="animation-delay: 500ms">
                            <text x="0" y="10" class="stat-label">Followers:</text>
                            <text x="115" y="10" class="stat-value">12</text>
                        </g>
                    
                
            </g>
        </g>
    </g>


    <g transform="translate(10, 240)">
        <rect width="470" height="120" rx="6" fill="#1f2d3d" stroke="#2e3f51" stroke-width="1"/>

        <g transform="translate(0, 20)">
			<text x="78" y="30" fill="#2eb872" font-family="Segoe UI, Ubuntu, sans-serif" font-weight="bold" font-size="22px" text-anchor="middle">
                2.7K
            </text>
            <text x="78" y="55" fill="#a4b1cd" font-family="Segoe UI, Ubuntu, sans-serif" font-size="12px" text-anchor="middle">
                Total Contributions
            </text>
            <text x="78" y="75" fill="#ffffff" opacity="0.6" font-family="Segoe UI, Ubuntu, sans-serif" font-size="10px" text-anchor="middle">
                Jul  3, 2015 - Present
            </text>
        </g>

        <line x1="156" y1="20" x2="156" y2="100" stroke="#4b5d73" stroke-width="1"/>

        <g transform="translate(156, 15)">
            <path d="M79,32 C84.8,32 89.5,28.5 89.5,22.3 C89.5,19.7 88.6,15.3 85.1,11.8 C85.5,14.4 82.9,15.3 82.9,15.3 C82.5,11.8 79,5.7 73.8,4.8 C74.4,8.3 74.6,11.8 70.3,15.3 C68.1,17 66.8,20 66.8,23.1 C66.8,28.5 71.5,32 79,32 M79,30.2 C76.1,30.2 73.8,28.5 73.8,25.4 C73.8,24.1 74.2,21.9 76,20.2 C75.8,21.9 77.3,22.8 77.3,22.8 C76.6,20.6 78.2,17.1 80.8,16.7 C80.5,18.4 80.4,20.2 82.6,21.9 C83.7,22.8 84.3,24.3 84.3,25.8 C84.3,28.5 81.9,30.2 79,30.2" fill="#2eb872"/>
            <text x="79" y="54" fill="#2eb872" font-family="Segoe UI, Ubuntu, sans-serif" font-weight="bold" font-size="22px" text-anchor="middle">
                0
            </text>
            <text x="79" y="74" fill="#2eb872" font-family="Segoe UI, Ubuntu, sans-serif" font-weight="bold" font-size="12px" text-anchor="middle">
                Current Streak
            </text>
            <text x="79" y="94" fill="#ffffff" opacity="0.6" font-family="Segoe UI, Ubuntu, sans-serif" font-size="10px" text-anchor="middle">
                 - 
            </text>
        </g>

        <line x1="313" y1="20" x2="313" y2="100" stroke="#4b5d73" stroke-width="1"/>

        <g transform="translate(313, 20)">
            <text x="78" y="30" fill="#2eb872" font-family="Segoe UI, Ubuntu, sans-serif" font-weight="bold" font-size="22px" text-anchor="middle">
                46
            </text>
            <text x="78" y="55" fill="#a4b1cd" font-family="Segoe UI, Ubuntu, sans-serif" font-size="12px" text-anchor="middle">
                Longest Streak
            </text>
            <text x="78" y="75" fill="#ffffff" opacity="0.6" font-family="Segoe UI, Ubuntu, sans-serif" font-size="10px" text-anchor="middle">
                Jun  1, 2026 - Jul 16, 2026
            </text>
        </g>
    </g>

</svg>
